Coordinates
version=1
nRows=9
nColumns=63
inDegrees=yes

Units are S.I. units (second, meters, Newtons, ...)
If the header above contains a line with 'inDegrees', this indicates whether rotational values are in degrees (yes) or radians (no).

endheader
time	pelvis_tilt	pelvis_list	pelvis_rotation	pelvis_tx	pelvis_ty	pelvis_tz	hip_flexion_r	hip_adduction_r	hip_rotation_r	knee_angle_r	knee_angle_r_beta	ankle_angle_r	subtalar_angle_r	mtp_angle_r	hip_flexion_l	hip_adduction_l	hip_rotation_l	knee_angle_l	knee_angle_l_beta	ankle_angle_l	subtalar_angle_l	mtp_angle_l	L5_S1_Flex_Ext	L5_S1_Lat_Bending	L5_S1_axial_rotation	L4_L5_Flex_Ext	L4_L5_Lat_Bending	L4_L5_axial_rotation	L3_L4_Flex_Ext	L3_L4_Lat_Bending	L3_L4_axial_rotation	L2_L3_Flex_Ext	L2_L3_Lat_Bending	L2_L3_axial_rotation	L1_L2_Flex_Ext	L1_L2_Lat_Bending	L1_L2_axial_rotation	L1_T12_Flex_Ext	L1_T12_Lat_Bending	L1_T12_axial_rotation	Abs_r3	Abs_r2	Abs_r1	Abs_t1	Abs_t2	neck_flexion	neck_bending	neck_rotation	arm_flex_r	arm_add_r	arm_rot_r	elbow_flex_r	pro_sup_r	wrist_flex_r	wrist_dev_r	arm_flex_l	arm_add_l	arm_rot_l	elbow_flex_l	pro_sup_l	wrist_flex_l	wrist_dev_l
      1.30000000	      2.00622128	     -9.85163755	     19.69024367	     -2.05742987	      0.91614221	      0.32858055	     17.52236036	      4.92391624	    -21.21910821	     23.49647606	      0.41009087	      9.73981694	    -14.76172751	      0.00000000	      7.09691046	     -9.26384846	     19.05687583	     58.57254498	      1.02228376	     -0.37350995	    -15.06623768	      0.00000000	      0.00859463	      1.01905636	     -2.28105228	      0.01596110	      1.35534496	     -2.42361805	      0.01412013	      2.47773364	     -2.42361805	      0.00982281	      2.47773364	     -1.99592074	      0.00798098	      2.07805974	     -1.85335498	      0.00491097	      1.57851831	     -1.71078921	      0.06139062	     11.52776940	    -12.68652846	      0.00000000	      0.00000000	     -0.00000000	      0.00000000	     -0.00000000	     -5.35234969	    -20.44172695	     61.25245239	     18.90947493	     42.82109103	      0.00000000	      5.00199105	      1.63663773	    -11.89425285	     46.63345344	     25.81888600	     51.48402963	      0.00000000	      5.00199105
      1.33333333	      2.12175272	     -9.20995071	     17.12024551	     -2.02710313	      0.92253020	      0.33627133	     14.04270752	      6.43466887	    -18.43896876	     21.11127154	      0.36846120	     10.53393798	    -13.07116517	      0.00000000	     10.79897378	     -7.60009235	     16.90853931	     64.41016535	      1.12416946	     -4.87032196	    -16.94173312	      0.00000000	      0.00921117	      0.94630567	     -1.79012421	      0.01710607	      1.25858653	     -1.90200697	      0.01513303	      2.30084759	     -1.90200697	      0.01052745	      2.30084759	     -1.56635868	      0.00855349	      1.92970651	     -1.45447592	      0.00526326	      1.46582748	     -1.34259316	      0.06579448	     10.70479895	     -9.95613383	      0.00000000	      0.00000000	     -0.00000000	      0.00000000	     -0.00000000	     -3.06195249	    -20.78225251	     60.51377844	     19.22574536	     42.76267860	      0.00000000	      5.00194874	      0.49191546	    -12.36130502	     46.27207887	     26.46441696	     51.33710949	      0.00000000	      5.00194874
      1.36666667	      1.96260240	     -8.34402114	     13.42734609	     -1.99800714	      0.92871148	      0.34473363	     10.56549902	      7.68122865	    -13.15530456	     18.40312523	      0.32119513	     10.24316715	    -13.11265918	      0.00000000	     14.92361950	     -6.05786134	     13.35353459	     68.84265460	      1.20153099	     -6.92897918	    -18.12400750	      0.00000000	      0.00706053	      0.83952520	     -1.15029090	      0.01311210	      1.11656851	     -1.22218408	      0.01159974	      2.04122157	     -1.22218408	      0.00806948	      2.04122157	     -1.00650454	      0.00655641	      1.71195979	     -0.93461135	      0.00403439	      1.30042453	     -0.86271817	      0.05043264	      9.49687695	     -6.39757288	      0.00000000	      0.00000000	     -0.00000000	      0.00000000	     -0.00000000	     -0.85447376	    -20.95895792	     56.19869089	     19.90121490	     42.11814236	      0.00000000	      5.00161215	     -1.34158876	    -11.92560886	     40.19142843	     26.52619612	     49.93795555	      0.00000000	      5.00161215
      1.40000000	      1.77195064	     -7.49848513	      9.58982954	     -1.96997632	      0.93429498	      0.35310693	      6.75427341	      8.26271851	     -9.22818250	     15.14003626	      0.26424348	      9.89354949	    -10.78586912	      0.00000000	     19.35945118	     -5.13602711	      9.37002683	     71.56874564	      1.24911025	     -6.34944389	    -18.69475558	      0.00000000	      0.00372525	      0.73633906	     -0.48411937	      0.00691816	      0.97933094	     -0.51437683	      0.00612021	      1.79033478	     -0.51437683	      0.00425759	      1.79033478	     -0.42360445	      0.00345927	      1.50154260	     -0.39334699	      0.00212861	      1.14058920	     -0.36308953	      0.02660908	      8.32961466	     -2.69252670	      0.00000000	      0.00000000	     -0.00000000	      0.00000000	     -0.00000000	      2.02688824	    -21.21914187	     55.19776648	     20.21637381	     41.89024696	      0.00000000	      5.00157531	     -2.06905211	    -11.95962748	     39.39440999	     26.06047875	     49.79653398	      0.00000000	      5.00157531
      1.43333333	      1.37148067	     -6.52658726	      4.93782161	     -1.94246492	      0.93842024	      0.36285681	      3.53337368	      8.47930819	     -2.07425438	     12.56078730	      0.21922710	      8.17509223	    -12.52320816	      0.00000000	     23.70607343	     -5.14674901	      4.36557376	     72.03666357	      1.25727696	     -3.49222645	    -18.79803497	      0.00000000	     -0.00031822	      0.61221861	      0.32459203	     -0.00059096	      0.81425076	      0.34487903	     -0.00052280	      1.48854834	      0.34487903	     -0.00036369	      1.48854834	      0.28401802	     -0.00029550	      1.24843620	      0.26373102	     -0.00018183	      0.94832663	      0.24344402	     -0.00227298	      6.92553941	      1.80528347	      0.00000000	      0.00000000	     -0.00000000	      0.00000000	     -0.00000000	      3.66857184	    -20.91840953	     46.47895715	     21.52869534	     38.77543504	      0.00000000	      5.00125153	     -3.82999675	    -11.35322402	     31.50167065	     26.38105521	     48.64768566	      0.00000000	      5.00125153
      1.46666667	      1.01744390	     -5.47443717	      0.55187838	     -1.91517622	      0.94112952	      0.37228165	      0.34364220	      7.87137074	      2.56154068	      9.91755748	      0.17309403	      7.00853469	    -11.50797624	      0.00000000	     27.45599096	     -5.75237013	     -0.41589104	     69.85380094	      1.21917882	      0.62111116	    -18.74929409	      0.00000000	     -0.00573777	      0.47709517	      1.10540062	     -0.01065561	      0.63453658	      1.17448816	     -0.00942658	      1.16000919	      1.17448816	     -0.00655769	      1.16000919	      0.96722554	     -0.00532809	      0.97289247	      0.89813800	     -0.00327856	      0.73902042	      0.82905047	     -0.04098429	      5.39699597	      6.14790663	      0.00000000	      0.00000000	     -0.00000000	      0.00000000	     -0.00000000	      5.30511332	    -20.41890132	     38.78225659	     23.08933699	     35.95988551	      0.00000000	      5.00099665	     -4.40094440	    -11.85758290	     31.00669429	     26.45435545	     49.37387509	      0.00000000	      5.00099665
      1.50000000	      0.67506757	     -4.38785493	     -3.27448936	     -1.88789932	      0.94184483	      0.38085781	     -2.70810358	      6.77647207	      5.33189276	      7.14932567	      0.12477927	      6.25739748	     -9.10792061	      0.00000000	     30.46613695	     -6.69471187	     -4.69054157	     65.01816296	      1.13478102	      4.69068579	    -18.58487805	      0.00000000	     -0.01050865	      0.33336252	      1.74742609	     -0.01951562	      0.44337215	      1.85664022	     -0.01726467	      0.81053764	      1.85664022	     -0.01201034	      0.81053764	      1.52899783	     -0.00975834	      0.67979286	      1.41978369	     -0.00600465	      0.51637855	      1.31056956	     -0.07506227	      3.77106352	      9.71865966	      0.00000000	      0.00000000	     -0.00000000	      0.00000000	     -0.00000000	      7.84186292	    -20.28982345	     37.64001141	     24.45307695	     35.63624559	      0.00000000	      5.00096789	     -4.86282343	    -12.65234210	     31.44341868	     26.57952092	     49.55339233	      0.00000000	      5.00096789
      1.53333333	      0.30961395	     -3.19328198	     -7.10668361	     -1.86076651	      0.94028893	      0.38909657	     -4.98819536	      5.37854951	      7.95344797	      5.54091377	      0.09670719	      6.60757500	     -7.46715442	      0.00000000	     32.47553097	     -7.94337300	     -9.03723286	     57.74671412	      1.00787029	      7.81900541	    -18.20467941	      0.00000000	     -0.01920605	      0.17840548	      2.43805871	     -0.03566756	      0.23727929	      2.59043738	     -0.03155362	      0.43377510	      2.59043738	     -0.02195060	      0.43377510	      2.13330137	     -0.01783474	      0.36380446	      1.98092271	     -0.01097434	      0.27635010	      1.82854404	     -0.13718691	      2.01815852	     13.55975115	      0.00000000	      0.00000000	     -0.00000000	      0.00000000	     -0.00000000	      8.77113002	    -19.24143942	     28.77911060	     27.12640048	     32.63148005	      0.00000000	      5.00079537	     -3.86366284	    -14.18496045	     38.61930062	     25.81787301	     51.88999783	      0.00000000	      5.00079537
      1.56666667	     -0.06402892	     -2.12042924	     -9.93971873	     -1.83330348	      0.93656759	      0.39505618	     -6.92748351	      3.93498084	      8.77654639	      4.27870128	      0.07467743	      8.43718286	     -4.45796284	      0.00000000	     33.66471009	     -8.85249843	    -12.52812599	     48.63820410	      0.84889680	      9.08049089	    -17.59637607	      0.00000000	     -0.02478274	      0.03772432	      2.89997765	     -0.04602403	      0.05017334	      3.08122626	     -0.04071557	      0.09172290	      3.08122626	     -0.02832420	      0.09172290	      2.53748045	     -0.02301325	      0.07692743	      2.35623184	     -0.01416086	      0.05843497	      2.17498324	     -0.17702065	      0.42674502	     16.12880572	      0.00000000	      0.00000000	     -0.00000000	      0.00000000	     -0.00000000	     10.40854070	    -18.64990974	     25.69788679	     29.45950656	     31.14227789	      0.00000000	      5.00066382	     -2.75407826	    -15.26042494	     45.31709733	     24.56352589	     54.21336196	      0.00000000	      5.00066382
